<svg width="36" height="40" viewBox="0 0 36 40" fill="none" xmlns="http://www.w3.org/2000/svg">
<g filter="url(#filter0_d)">
<path d="M3.5 11.6601L18 3.57252L32.5 11.6601V28.4711L18 36.4296L3.5 28.4711V11.6601Z" stroke="#FF003C"/>
</g>
<path d="M16.7769 23.9616C17.1281 23.8889 17.4308 23.7557 17.6912 23.5559C17.9212 23.3864 18.1089 23.1745 18.2603 22.9202C18.5025 22.5388 18.6175 22.1089 18.6175 21.6306C18.6175 21.1705 18.5146 20.7709 18.3027 20.45C18.0908 20.1231 17.782 19.8869 17.3703 19.7356C17.6427 19.5963 17.8486 19.445 17.9878 19.2754C18.2361 18.9788 18.3632 18.5792 18.3632 18.0888C18.3632 17.6105 18.2421 17.1988 17.9939 16.8597C17.5822 16.3027 16.8859 16.0182 15.9051 16H12V24.0705H15.6327C16.0444 24.0766 16.4258 24.0403 16.7769 23.9616ZM13.6105 17.4046H15.3663C15.7537 17.4046 16.0686 17.447 16.3168 17.5318C16.6074 17.6529 16.7527 17.9011 16.7527 18.2765C16.7527 18.6155 16.6437 18.8516 16.4258 18.9848C16.2078 19.118 15.9233 19.1846 15.5721 19.1846H13.6105V17.4046ZM13.6105 22.672V20.5227H15.5963C15.9414 20.5287 16.2139 20.5711 16.4016 20.6619C16.7467 20.8193 16.9162 21.1039 16.9162 21.5277C16.9162 22.0242 16.7406 22.3571 16.3834 22.5327C16.1897 22.6296 15.9172 22.672 15.5661 22.672H13.6105Z" fill="#FF003C"/>
<path d="M19.9857 23.5427C20.5911 24.0331 21.2934 24.2753 22.0866 24.2753C23.0492 24.2753 23.8 23.9847 24.3328 23.4035C24.6779 23.0402 24.8716 22.6769 24.914 22.3258H23.3217C23.2309 22.5014 23.1219 22.6346 23.0008 22.7375C22.7768 22.9191 22.4922 23.0099 22.135 23.0099C21.802 23.0099 21.5114 22.9373 21.2753 22.7859C20.8818 22.5437 20.6759 22.126 20.6517 21.5266H24.9988C25.0048 21.012 24.9867 20.6184 24.9503 20.3399C24.8777 19.8737 24.7203 19.462 24.472 19.1048C24.1996 18.7052 23.8545 18.4086 23.4428 18.2209C23.025 18.0332 22.5588 17.9424 22.0381 17.9424C21.1663 17.9424 20.4519 18.2209 19.907 18.7718C19.356 19.3228 19.0836 20.1159 19.0836 21.1512C19.0775 22.2531 19.3803 23.0523 19.9857 23.5427ZM21.0997 19.5771C21.3177 19.3531 21.6325 19.238 22.0321 19.238C22.4014 19.238 22.7102 19.347 22.9584 19.5589C23.2066 19.7708 23.3459 20.0856 23.3762 20.5034H20.688C20.7425 20.1099 20.8817 19.8011 21.0997 19.5771Z" fill="#FF003C"/>
<path d="M23.6789 16.4717H20.1733V17.283H23.6789V16.4717Z" fill="#FF003C"/>
<defs>
<filter id="filter0_d" x="0" y="0" width="36" height="40" filterUnits="userSpaceOnUse" color-interpolation-filters="sRGB">
<feFlood flood-opacity="0" result="BackgroundImageFix"/>
<feColorMatrix in="SourceAlpha" type="matrix" values="0 0 0 0 0 0 0 0 0 0 0 0 0 0 0 0 0 0 127 0"/>
<feOffset/>
<feGaussianBlur stdDeviation="1.5"/>
<feColorMatrix type="matrix" values="0 0 0 0 1 0 0 0 0 0 0 0 0 0 0.235294 0 0 0 1 0"/>
<feBlend mode="normal" in2="BackgroundImageFix" result="effect1_dropShadow"/>
<feBlend mode="normal" in="SourceGraphic" in2="effect1_dropShadow" result="shape"/>
</filter>
</defs>
</svg>
