<svg width="100" height="43" viewBox="0 0 100 43" fill="none" xmlns="http://www.w3.org/2000/svg">
<path d="M7.29878 38.397C7.93201 37.7275 8.66522 36.9576 9.08182 36.6061C8.96517 36.5893 8.7652 36.5726 8.54857 36.5391C8.08198 36.9408 7.51541 37.5601 6.99883 38.1292C6.33228 38.849 5.79903 39.4515 5.79903 39.4515L5.78237 39.4683C5.36577 39.5854 4.63256 39.7863 4.13264 39.9369C3.4161 40.1378 2.7662 40.0876 2.7662 40.573C2.7662 40.573 2.01633 40.9747 2.18297 41.5773C2.18297 41.5773 3.68272 40.3889 4.94917 40.1713C4.94917 40.1713 4.16597 40.6902 4.23263 41.3597C4.23263 41.3597 5.28245 39.7696 6.51558 40.7404C6.51558 40.7404 5.96567 39.9872 6.19897 39.5854C6.4156 39.3511 6.83219 38.8992 7.29878 38.397ZM4.94917 19.7341C4.88252 19.7676 4.81586 19.7676 4.74921 19.7676C4.53258 19.7676 4.33261 19.6337 4.23263 19.4329C4.23263 19.4161 4.21596 19.3994 4.21596 19.3659L4.04932 19.4161C4.18264 19.8011 4.59923 20.0354 4.96584 19.9183C5.04916 19.8848 5.13248 19.8346 5.19913 19.7676C5.3991 19.5835 5.48242 19.2487 5.38244 18.9642L5.01583 19.0814C5.03249 19.1316 5.04916 19.1985 5.04916 19.2487C5.04916 19.2989 5.03249 19.3492 5.01583 19.3994L5.18247 19.4998C5.14914 19.55 5.11581 19.5835 5.08249 19.617C5.04916 19.6839 4.99917 19.7007 4.94917 19.7341ZM19.98 18.529L12.6479 20.32L26.9955 14.0767L15.1808 15.5329L21.5131 10.8965L14.6975 13.5745L15.714 11.5158L10.8815 15.014L10.8482 14.9471L17.7304 0L6.53224 13.3067L6.46559 6.04243L2.34961 15.7337L2.13298 12.8883L0.116647 20.3032C0.116647 20.3032 0.383269 20.1024 0.766539 20.0019C0.799866 20.0019 0.81653 19.9852 0.849858 19.9852C0.849858 19.9852 0.849858 19.9852 0.866522 19.9852C0.89985 19.9852 0.916514 19.9685 0.949841 19.9685C0.949841 19.9685 0.949841 19.9685 0.966505 19.9685C0.999833 19.9685 1.0165 19.9517 1.04982 19.9517C1.08315 19.9517 1.11648 19.9517 1.13314 19.9517H1.14981C1.18314 19.9517 1.21646 19.9517 1.24979 19.9517C1.24979 19.9517 1.24979 19.9517 1.26646 19.9517C1.29978 19.9517 1.31645 19.9517 1.34977 19.9517H1.36644C1.39977 19.9517 1.43309 19.9685 1.44976 19.9685H1.46642C1.49975 19.9685 1.53308 19.9852 1.56641 20.0019C2.26629 20.253 2.83286 20.0019 2.83286 20.0019C2.83286 20.0019 3.48275 20.4204 3.48275 20.7719C3.48275 20.7719 2.63289 20.8221 2.63289 20.4539C2.63289 20.4539 1.53308 20.0689 0 20.638L3.23279 22.044C3.23279 22.0272 3.06616 21.4247 3.24946 21.2071C3.29945 21.1401 3.4161 21.1067 3.56607 21.1569C3.61606 21.1736 3.66606 21.1736 3.69938 21.1401C3.94934 20.8891 2.73288 18.6127 2.73288 18.6127C2.73288 18.6127 1.64972 18.5123 0.699883 19.4998C0.633227 19.5668 0.566572 19.6337 0.51658 19.7174C0.616564 19.55 0.916514 19.0479 1.43309 18.6294C1.73304 18.3784 2.13298 18.1273 2.5829 18.0101C2.69955 17.7088 2.54957 17.9097 2.79953 17.7423C2.91618 16.9389 3.38277 14.8968 4.91585 13.1394C5.01583 13.0222 5.11581 12.905 5.23246 12.8046C5.23246 12.8046 4.84919 13.5578 4.84919 14.0767C4.86585 14.0599 5.24912 13.4741 5.79903 12.9385C5.79903 12.9385 5.79903 12.9552 5.78237 12.9552C5.68239 13.1728 4.94917 14.7629 5.01583 15.2316C5.01583 15.2316 5.01583 15.2316 5.01583 15.2483L6.51558 13.8591C6.46559 13.9093 5.09915 15.7672 4.96584 16.4033L7.23213 14.7797C7.23213 14.7964 6.94884 15.1814 6.83219 15.399C6.74887 15.5496 6.73221 15.5998 6.73221 15.6166V15.6333L7.94867 15.0977C7.94867 15.0977 7.89868 15.1647 7.81536 15.2483L7.34877 15.717L7.23213 15.8342L6.39893 16.6711L6.38227 16.6878L5.74904 17.3406L5.34911 17.7423C5.34911 17.7423 5.03249 18.0771 4.9825 18.2779C4.94917 18.4453 5.13248 18.5625 5.13248 18.5625C5.29912 18.6462 5.43243 18.7968 5.51575 18.9642C5.56574 19.0646 5.5824 19.1818 5.5824 19.299C5.5824 19.5333 5.48242 19.7676 5.33244 19.9183C5.18247 20.0689 4.94917 20.1693 4.68255 20.1693C4.46592 20.1693 4.26595 20.0856 4.08265 19.9517C4.11598 19.9852 4.56591 20.5543 5.36577 20.1191L6.38227 19.3826L6.46559 19.3492L7.51541 18.5792C7.76537 18.8638 7.99867 19.232 8.2153 19.617C7.58207 20.2195 6.53224 21.2406 5.48242 22.362C4.84919 23.0315 4.23263 23.7513 3.68272 24.4041L4.04932 22.6298L4.08265 22.4792C4.08265 22.4792 4.08265 22.4792 4.06599 22.4792C4.06599 22.4792 4.06599 22.4792 4.04932 22.4792H4.03266C4.03266 22.4792 4.03266 22.4792 4.016 22.4792C4.016 22.4792 3.99933 22.4792 3.99933 22.4959C3.99933 22.4959 3.99933 22.4959 3.98267 22.5127C3.98267 22.5127 3.98267 22.5127 3.966 22.5294L3.94934 22.5461L3.93268 22.5629L3.91601 22.5796C3.89935 22.5796 3.89935 22.5963 3.89935 22.5963L3.88269 22.6131L3.86602 22.6298C3.84936 22.6298 3.84936 22.6466 3.84936 22.6466C3.84936 22.6633 3.83269 22.6633 3.81603 22.6633L3.79937 22.68C3.7827 22.68 3.7827 22.6968 3.76604 22.7135L3.74937 22.7302C3.74937 22.747 3.73271 22.747 3.71605 22.7637L3.69938 22.7805L3.68272 22.7972C3.66605 22.8139 3.66605 22.8139 3.64939 22.8307C3.63273 22.8307 3.63273 22.8474 3.61606 22.8642C3.5994 22.8809 3.5994 22.8809 3.58274 22.8976C3.56607 22.9144 3.56607 22.9144 3.54941 22.9311C3.54941 22.9478 3.53274 22.9478 3.53274 22.9646L3.51608 22.9813C3.51608 22.9813 3.51608 22.9813 3.51608 22.9981L3.49942 23.0148C3.48275 23.0315 3.48275 23.0315 3.46609 23.0483C3.46609 23.0483 3.46609 23.0483 3.44942 23.065C3.44942 23.0817 3.43276 23.0817 3.43276 23.0817C3.4161 23.0985 3.4161 23.1152 3.39943 23.132C3.38277 23.1487 3.38277 23.1487 3.36611 23.1654C3.34944 23.1822 3.33278 23.1989 3.33278 23.2157C3.31611 23.2324 3.31611 23.2491 3.29945 23.2491C3.28279 23.2659 3.26612 23.2826 3.24946 23.2993C3.23279 23.3161 3.23279 23.3328 3.21613 23.3496C3.19947 23.3663 3.1828 23.383 3.1828 23.3998C3.16614 23.4165 3.16614 23.4332 3.14947 23.4332C3.13281 23.45 3.11615 23.4667 3.09948 23.5002C3.08282 23.5169 3.08282 23.5337 3.06615 23.5337C3.04949 23.5504 3.03283 23.5839 3.01616 23.6006C3.01616 23.6174 2.9995 23.6174 2.9995 23.6341C2.96617 23.6676 2.94951 23.7178 2.91618 23.7513C2.88285 23.7847 2.86619 23.835 2.83286 23.8684C2.83286 23.8852 2.8162 23.8852 2.8162 23.9019C2.79953 23.9354 2.78287 23.9521 2.7662 23.9856C2.74954 24.0023 2.74954 24.0191 2.73288 24.0358C2.71621 24.0693 2.69955 24.086 2.68289 24.1195C2.66622 24.1362 2.66622 24.153 2.64956 24.1697C2.63289 24.2032 2.61623 24.2367 2.59957 24.2534C2.59957 24.2701 2.5829 24.2869 2.56624 24.3036C2.54957 24.3371 2.53291 24.3706 2.51625 24.3873C2.49958 24.4041 2.49958 24.4208 2.48292 24.4375C2.46625 24.471 2.44959 24.5045 2.43293 24.538C2.43293 24.5547 2.41626 24.5714 2.3996 24.5882C2.31628 24.7388 2.23296 24.8895 2.14964 25.0736L1.73304 25.1405C1.81636 24.9229 1.89968 24.7388 1.983 24.538L1.29978 25.492L1.983 25.4251C1.39977 26.7808 0.983169 28.5049 0.983169 31.0156L1.54974 30.6641C2.04966 33.4426 4.31595 34.6645 4.31595 34.6645V34.6477C5.56574 35.4846 7.09882 36.0537 8.79853 36.2881C9.03183 36.3215 9.21513 36.3383 9.28178 36.3383C9.31511 36.3383 9.33178 36.355 9.3651 36.355C10.2816 36.4387 11.1648 36.4052 12.0147 36.2713C12.0147 36.3048 12.0147 36.3383 12.0147 36.3717C12.0147 36.9241 12.3146 37.376 12.7145 37.4095C11.9147 38.782 11.2648 40.5897 11.2648 40.6065C11.2315 40.6902 11.1648 40.8408 11.1148 40.891C10.9148 40.9412 10.8982 40.9412 10.6982 41.0082C10.6316 40.9412 9.99833 40.8241 9.34844 41.0584C8.9985 41.209 8.63189 41.5271 8.38193 41.9957C8.63189 41.7949 9.13181 41.4266 9.51508 41.4768C9.03183 41.7447 8.24862 42.2635 8.13198 43C8.13198 43 10.9482 41.0249 12.3479 41.3764C12.3479 41.3764 12.148 41.6107 12.6146 42.4644L12.8312 41.661C13.0812 40.891 12.1146 40.7738 11.7147 40.7571V40.7404C11.7147 40.7404 11.7647 40.6232 11.8314 40.4223C12.0647 39.803 12.6312 38.4305 13.2478 37.4597C13.2645 37.443 13.2645 37.4262 13.2645 37.3928L13.1478 37.2421C13.1478 37.2421 13.2311 37.1584 13.2645 37.0915C13.3478 36.9576 13.4478 36.7567 13.4478 36.4554C13.4478 36.2378 13.3978 35.9366 13.2311 35.5851L13.5811 35.4177C13.5977 35.4679 13.6144 35.5014 13.6311 35.5516C13.6311 35.5683 13.6477 35.5851 13.6477 35.5851C13.6644 35.6185 13.6644 35.6353 13.6811 35.6687C13.6811 35.6855 13.6977 35.7022 13.6977 35.719C13.7144 35.7524 13.7144 35.7859 13.731 35.8026C13.731 35.8194 13.731 35.8194 13.7477 35.8361L15.7974 35.2001L15.3308 34.8318L15.3141 34.8151H15.2974L7.51541 27.7182C9.68172 28.7727 12.2146 30.0113 16.4972 32.0031C20.7299 33.9615 23.4128 35.0997 24.7792 35.6687C24.7959 35.6687 24.7959 35.6855 24.8125 35.6855C25.0125 35.7692 25.1791 35.8361 25.3291 35.8863C25.6124 36.0035 25.9123 36.1039 25.929 36.1207C25.9457 36.1039 25.979 36.1039 25.9957 36.0872L10.2483 25.2242L19.98 18.529ZM9.06515 21.8599L6.71555 23.6508L8.3986 19.9183C8.68188 20.5041 8.89852 21.1569 9.06515 21.8599ZM17.4638 34.7314L17.5137 35.016L20.2633 36.6395L20.9632 37.0413L20.5966 36.0537C22.8629 36.7232 24.7125 36.7735 25.9457 36.1709C23.796 36.8237 18.4969 35.016 17.4638 34.7314Z" fill="#DB0D15"/>
<path d="M2.66622 20.4206C2.66622 20.7889 3.51608 20.7387 3.51608 20.7387C3.51608 20.3872 2.86619 19.9687 2.86619 19.9687C2.86619 19.9687 2.26629 20.2198 1.58307 19.9687C1.31644 19.8683 0.999831 19.9018 0.766536 19.9687C0.449922 20.1863 0.0333252 20.588 0.0333252 20.588C1.5664 20.0189 2.66622 20.4206 2.66622 20.4206ZM8.3986 19.9352L6.71555 23.6678L9.06515 21.8601C8.89851 21.1571 8.66522 20.5043 8.3986 19.9352ZM25.929 36.1711C25.929 36.1711 20.6466 34.1793 7.49875 27.7686L15.3308 34.9325C16.0307 34.648 16.5139 34.4304 17.4971 34.9995L17.4471 34.7149C18.4803 35.0162 23.8127 36.8239 25.929 36.1711ZM13.2145 35.6857C13.3644 36.0372 13.4311 36.3218 13.4311 36.5561C13.4311 36.8406 13.3144 37.075 13.2478 37.1921C13.1978 37.2591 13.1311 37.3428 13.1311 37.3428L13.3644 37.6608C13.3811 37.6441 13.8477 37.3093 13.8477 36.5561C13.8477 36.2715 13.781 35.92 13.5977 35.5183L13.2145 35.6857ZM8.51525 36.5394C8.88185 36.5896 9.23179 36.623 9.23179 36.623L9.24846 36.4222C9.24846 36.4222 8.91518 36.3887 8.54857 36.3385L8.51525 36.5394ZM8.23196 19.6005C8.03199 19.2155 7.7987 18.8473 7.53208 18.5627L5.43243 20.1193C4.58257 20.5545 4.14931 19.952 4.14931 19.952C4.29928 20.0859 4.49925 20.1696 4.74921 20.1696C5.24912 20.1696 5.64906 19.7846 5.64906 19.2992C5.64906 19.182 5.63239 19.0649 5.5824 18.9644C5.49908 18.797 5.36577 18.6464 5.19913 18.5627C5.19913 18.5627 5.01583 18.4623 5.04916 18.2782C5.08248 18.1108 5.41576 17.7425 5.41576 17.7425L6.44892 16.6881L6.46559 16.6713L7.39876 15.7172L7.86535 15.2318C7.94867 15.1481 7.99866 15.0812 7.99866 15.0812L6.7822 15.6168C6.7822 15.6168 6.76554 15.6001 6.88218 15.3825C6.99883 15.1649 7.28212 14.7632 7.28212 14.7632L5.01583 16.3868C5.14914 15.7507 6.56557 13.8426 6.56557 13.8426L5.06582 15.2318C4.96584 14.7464 5.84902 12.922 5.84902 12.922C5.29912 13.4743 4.89918 14.0602 4.89918 14.0602C4.89918 13.5246 5.28245 12.7881 5.28245 12.7881C3.46609 14.6125 2.94951 16.9056 2.83286 17.7593C2.5829 17.9267 2.73288 17.7258 2.61623 18.0271C1.39976 18.3619 0.716545 19.4666 0.549906 19.7344C1.53308 18.5125 2.79953 18.6297 2.79953 18.6297C2.79953 18.6297 4.28262 21.3914 3.63273 21.1738C2.98283 20.9562 3.29945 22.0442 3.29945 22.0442L2.08298 21.5086C2.28295 21.8936 2.68288 22.8309 2.44959 23.8352C2.19963 24.2034 1.94967 24.6888 1.73304 25.2579L2.14964 25.191C2.23296 25.0236 2.31628 24.8562 2.38293 24.6888C2.3996 24.6721 2.3996 24.6554 2.41626 24.6386C2.43293 24.6051 2.44959 24.5717 2.46625 24.5382C2.48292 24.5214 2.48292 24.5047 2.49958 24.488C2.51625 24.4545 2.53291 24.4378 2.54957 24.4043C2.56624 24.3875 2.56624 24.3708 2.5829 24.3541C2.59956 24.3206 2.61623 24.2871 2.63289 24.2704C2.64956 24.2536 2.64956 24.2369 2.66622 24.2202C2.68288 24.1867 2.69955 24.1699 2.71621 24.1365C2.71621 24.1197 2.73288 24.103 2.74954 24.0863C2.7662 24.0528 2.78287 24.036 2.79953 24.0026C2.79953 23.9858 2.81619 23.9691 2.81619 23.9691C2.83286 23.9356 2.86619 23.8854 2.89951 23.8519C2.93284 23.8184 2.94951 23.7682 2.98283 23.7348C2.98283 23.718 2.9995 23.718 2.9995 23.7013C3.01616 23.6678 3.03283 23.6511 3.04949 23.6176C3.06615 23.6009 3.06615 23.6009 3.08282 23.5841C3.09948 23.5674 3.11615 23.5339 3.13281 23.5172C3.14947 23.5004 3.14947 23.4837 3.16614 23.4837C3.1828 23.467 3.19946 23.4502 3.21613 23.4335C3.23279 23.4167 3.23279 23.4 3.24946 23.4C3.26612 23.3833 3.28278 23.3665 3.28278 23.3498C3.29945 23.333 3.29945 23.3163 3.31611 23.3163C3.33278 23.2996 3.34944 23.2828 3.34944 23.2661C3.3661 23.2494 3.3661 23.2494 3.38277 23.2326C3.39943 23.2159 3.4161 23.1991 3.4161 23.1824C3.43276 23.1657 3.43276 23.1657 3.44942 23.1489C3.46609 23.1322 3.46609 23.1322 3.48275 23.1155C3.49941 23.0987 3.49941 23.0987 3.51608 23.082C3.53274 23.0652 3.53274 23.0652 3.54941 23.0485C3.54941 23.0485 3.56607 23.0318 3.58273 23.015C3.5994 22.9983 3.5994 22.9983 3.61606 22.9816C3.61606 22.9816 3.63273 22.9648 3.64939 22.9481C3.66605 22.9313 3.66605 22.9146 3.68272 22.9146C3.69938 22.9146 3.69938 22.8979 3.69938 22.8979C3.71605 22.8811 3.73271 22.8644 3.74937 22.8476C3.76604 22.8476 3.76604 22.8309 3.76604 22.8309C3.76604 22.8142 3.7827 22.8142 3.79936 22.7974L3.81603 22.7807C3.83269 22.7807 3.83269 22.764 3.84936 22.764C3.86602 22.764 3.86602 22.7472 3.86602 22.7472C3.86602 22.7305 3.88268 22.7305 3.88268 22.7305L3.89935 22.7137L3.91601 22.697L3.93268 22.6803L3.94934 22.6635L3.966 22.6468C3.966 22.6468 3.98267 22.6468 3.98267 22.6301C3.98267 22.6301 3.99933 22.63 3.99933 22.6133C3.99933 22.6133 4.016 22.6133 4.016 22.5966C4.016 22.5966 4.016 22.5966 4.03266 22.5966H4.04932C4.04932 22.5966 4.04932 22.5966 4.06599 22.5966C4.06599 22.5966 4.06599 22.5966 4.08265 22.5966L4.04932 22.7472L3.68272 24.5214C5.13248 22.5966 7.24879 20.5378 8.23196 19.6005ZM4.04932 19.4163L4.21596 19.3661C4.21596 19.3829 4.23263 19.4163 4.23263 19.4331C4.31595 19.6507 4.51591 19.7678 4.74921 19.7678C4.81586 19.7678 4.88252 19.7511 4.94917 19.7344C5.04916 19.6842 5.14914 19.6172 5.19913 19.5168L5.03249 19.4163C5.04916 19.3661 5.06582 19.3159 5.06582 19.2657C5.06582 19.1988 5.04916 19.1485 5.03249 19.0983L5.3991 18.9812C5.53241 19.3661 5.34911 19.8013 4.9825 19.9352C4.58257 20.0189 4.18263 19.8181 4.04932 19.4163Z" fill="white"/>
<path d="M38.4269 22.3958C38.1769 22.3289 37.7937 22.2954 37.3104 22.2954H36.2606V28.3043L36.3772 28.2207L37.2438 27.6013L37.2771 27.5846V25.8773H37.6104C38.2269 25.8773 38.7268 25.7099 39.0934 25.3919C39.4601 25.0739 39.66 24.622 39.66 24.0864C39.66 23.5675 39.4934 23.149 39.1434 22.8143C38.9268 22.5967 38.6768 22.4628 38.4269 22.3958ZM37.5437 25.0237H37.2771V23.1825H37.577C38.3769 23.1825 38.7768 23.4671 38.7768 24.0696C38.7768 24.7057 38.3602 25.0237 37.5437 25.0237ZM44.0426 25.7434C44.3926 25.643 44.6925 25.4589 44.9091 25.1743C45.1424 24.873 45.2757 24.4881 45.2757 24.0696C45.2757 23.5173 45.0758 23.0821 44.6758 22.7473C44.3259 22.4628 43.7593 22.3121 42.9761 22.3121H41.893V28.3211L41.993 28.2374L42.8595 27.6181L42.8928 27.6013V25.8773H42.9428L44.5759 28.2207L44.6092 28.2709L44.6592 28.2374L45.3591 27.7185L45.4091 27.685L45.3757 27.6348L44.0426 25.7434ZM42.9095 25.0237V24.9567V23.2662V23.1825H43.2094C44.0093 23.1825 44.4092 23.4671 44.4092 24.0696C44.4092 24.7057 44.0093 25.0237 43.1761 25.0237H42.9095ZM28.8452 22.4628C28.5119 22.3456 28.0286 22.2954 27.4454 22.2954H26.1789V28.2207H27.4454C28.0453 28.2207 28.4952 28.1704 28.8285 28.0533C29.1618 27.9528 29.5117 27.752 29.8283 27.4674C30.4616 26.8983 30.7782 26.1619 30.7782 25.258C30.7782 24.3542 30.4782 23.601 29.8617 23.0653C29.5617 22.7808 29.2284 22.5799 28.8452 22.4628ZM29.1451 26.7477C28.9451 26.9318 28.7285 27.0657 28.4619 27.1327C28.2119 27.2164 27.8953 27.2498 27.512 27.2498H27.1954V23.2495H27.512C28.2286 23.2495 28.7785 23.4168 29.1451 23.7683C29.545 24.1366 29.7617 24.6555 29.7617 25.2748C29.745 25.8773 29.545 26.3627 29.1451 26.7477ZM22.4795 23.149C22.8462 23.149 23.2294 23.2495 23.5794 23.4671L23.646 23.5005L23.6793 23.4336L24.0959 22.6971L24.1293 22.6302L24.0626 22.5967C23.5627 22.3121 23.0461 22.1782 22.5295 22.1782C21.563 22.1782 20.7632 22.5297 20.1466 23.2662C19.6467 23.8688 19.3967 24.5215 19.3967 25.2915C19.3967 26.1284 19.6967 26.8649 20.2799 27.4507C20.8798 28.0533 21.5964 28.3378 22.4462 28.3378C23.0128 28.3378 23.546 28.1872 24.046 27.9026L24.0793 27.8859V27.8357V27.8189L23.6627 27.0825L23.6294 27.0155L23.5627 27.049C23.4461 27.1159 23.3294 27.1829 23.2294 27.2331C23.0295 27.3335 22.7628 27.367 22.4795 27.367C21.913 27.367 21.4297 27.1662 21.0298 26.7477C20.6465 26.3627 20.4299 25.8438 20.4299 25.258C20.4299 24.6554 20.6299 24.1533 21.0298 23.7349C21.4297 23.3499 21.9296 23.149 22.4795 23.149ZM89.1351 23.2662L89.1518 23.2495L89.9516 22.4293L90.0683 22.3121H86.6355V28.2541H89.1351L89.1518 28.2374L89.935 27.4172L90.0516 27.3001H87.652V25.4589H88.4019L88.4186 25.4421L89.2351 24.622L89.3517 24.5048H87.652V23.3164H89.1351V23.2662V23.2662ZM71.7713 23.2662H73.0878V28.3043L73.2044 28.2207L74.071 27.6013L74.1043 27.5846V23.2662H75.4207V22.2954H71.7547V23.2662H71.7713ZM50.3416 22.195C49.4917 22.195 48.7585 22.4962 48.1586 23.0988C47.5587 23.7014 47.2421 24.4044 47.2421 25.2413C47.2421 26.1786 47.5754 26.9653 48.2419 27.5511C48.8418 28.0867 49.525 28.3546 50.2916 28.3546C51.1414 28.3546 51.8913 28.0533 52.4912 27.4507C53.1078 26.8481 53.4077 26.1451 53.4077 25.2915C53.4077 24.4546 53.1078 23.7014 52.5079 23.1156C51.908 22.4962 51.1748 22.195 50.3416 22.195ZM51.7913 26.7644C51.3914 27.1662 50.8915 27.3837 50.3082 27.3837C49.775 27.3837 49.2917 27.1829 48.8752 26.7812C48.4752 26.3962 48.2419 25.8773 48.2419 25.2413C48.2419 24.6555 48.4419 24.1533 48.8418 23.7516C49.2251 23.3499 49.7417 23.1323 50.3249 23.1323C50.9081 23.1323 51.3914 23.3331 51.7913 23.7516C52.1746 24.1533 52.3912 24.6554 52.3912 25.258C52.4079 25.8438 52.1913 26.346 51.7913 26.7644ZM96.1173 23.0653C95.8173 22.7975 95.4674 22.5799 95.1008 22.4628C94.7675 22.3456 94.2843 22.2954 93.701 22.2954H92.4346V28.2207H93.701C94.3009 28.2207 94.7508 28.1704 95.0841 28.0533C95.4174 27.9528 95.7673 27.752 96.084 27.4674C96.7172 26.8983 97.0338 26.1619 97.0338 25.258C97.0338 24.3542 96.7172 23.6177 96.1173 23.0653ZM95.4007 26.7477C95.2008 26.9318 94.9841 27.0657 94.7175 27.1327C94.4676 27.2164 94.1343 27.2498 93.7677 27.2498H93.4511V23.2495H93.7677C94.4842 23.2495 95.0341 23.4168 95.4007 23.7683C95.8007 24.1366 96.0173 24.6555 96.0173 25.2748C96.0173 25.8773 95.8007 26.3627 95.4007 26.7477ZM82.7528 25.7434C83.1028 25.643 83.4027 25.4589 83.6194 25.1743C83.8527 24.873 83.986 24.4881 83.986 24.0696C83.986 23.5173 83.786 23.0821 83.4027 22.7473C83.0528 22.4628 82.4862 22.3121 81.703 22.3121H80.6199V28.3211L80.7365 28.2374L81.603 27.6181L81.6364 27.6013V25.8773H81.6864L83.3194 28.2207L83.3694 28.2709L83.4194 28.2374L84.1193 27.7185L84.1693 27.685L84.1359 27.6348L82.7528 25.7434ZM81.603 25.0237V23.1825H81.903C82.7029 23.1825 83.1028 23.4671 83.1028 24.0696C83.1028 24.7057 82.7028 25.0237 81.8697 25.0237H81.603ZM69.0051 22.3121L66.8888 24.4881V22.2117L66.7722 22.2954L65.9056 22.9147L65.8723 22.9314V28.2876L65.989 28.2039L66.8555 27.5846L66.8888 27.5679V25.7769L66.9888 25.6765L69.0051 28.2039L69.0385 28.2541L69.0884 28.2207L69.8383 27.7018L69.905 27.6516L69.855 27.5846L67.7053 24.9735L70.2716 22.3958L70.3882 22.2787H69.0218L69.0051 22.3121ZM56.5405 22.9314L56.5072 22.9482V26.1284C56.5072 26.6138 56.4572 26.9486 56.3572 27.1327C56.2739 27.3001 56.1239 27.3837 55.874 27.3837C55.7073 27.3837 55.524 27.3168 55.3241 27.1829L55.2574 27.1494L55.2241 27.2164L54.8075 27.9696L54.7742 28.0365L54.8242 28.07C55.1408 28.2541 55.5074 28.3546 55.874 28.3546C56.3906 28.3546 56.7905 28.1704 57.0738 27.8022C57.2238 27.6181 57.3404 27.4005 57.4071 27.1327C57.4737 26.9151 57.507 26.5636 57.507 26.1117V22.2284L57.3904 22.3121L56.5405 22.9314ZM62.7728 23.2662L62.7895 23.2495L63.5894 22.4293L63.706 22.3121H60.2899V28.2541H62.7895L62.8062 28.2374L63.5894 27.4172L63.706 27.3001H61.2897V25.4589H62.0396L62.0563 25.4421L62.8728 24.622L62.9895 24.5048H61.2897V23.3164H62.7895V23.2662H62.7728Z" fill="white"/>
<path d="M98.9667 24.2532C98.3835 24.2532 97.9336 23.7846 97.9336 23.2155C97.9336 22.6297 98.4002 22.1777 98.9667 22.1777C99.5333 22.1777 99.9999 22.6464 99.9999 23.2155C99.9999 23.8013 99.5333 24.2532 98.9667 24.2532ZM98.9667 22.3451C98.4668 22.3451 98.0836 22.7301 98.0836 23.2322C98.0836 23.7176 98.4668 24.1193 98.9667 24.1193C99.4667 24.1193 99.8499 23.7344 99.8499 23.2322C99.8499 22.7134 99.45 22.3451 98.9667 22.3451ZM99.25 23.8181L98.9501 23.3327H98.7501V23.8181H98.5835V22.6297H99.0667C99.2667 22.6297 99.45 22.7636 99.45 22.9812C99.45 23.2322 99.2167 23.3327 99.1501 23.3327L99.4667 23.8181H99.25ZM99.0501 22.7636H98.7335V23.182H99.0501C99.15 23.182 99.2667 23.0983 99.2667 22.9812C99.2667 22.8473 99.15 22.7636 99.0501 22.7636Z" fill="white"/>
</svg>
