<svg width="36" height="40" viewBox="0 0 36 40" fill="none" xmlns="http://www.w3.org/2000/svg">
<g filter="url(#filter0_d)">
<path d="M3.5 11.6601L18 3.57252L32.5 11.6601V28.4711L18 36.4296L3.5 28.4711V11.6601Z" stroke="#FF003C"/>
</g>
<path d="M15.7446 27H18.3609V20.4433H20.1883L20.3832 18.2487H18.3654C18.3654 18.2487 18.3654 17.428 18.3654 16.9972C18.3654 16.4803 18.4697 16.2762 18.9685 16.2762C19.3721 16.2762 20.3832 16.2762 20.3832 16.2762V14C20.3832 14 18.8914 14 18.5695 14C16.6242 14 15.7446 14.857 15.7446 16.4984C15.7446 17.9268 15.7446 18.2487 15.7446 18.2487H14.3843V20.4705H15.7446V27Z" fill="#FF003C"/>
<defs>
<filter id="filter0_d" x="0" y="0" width="36" height="40" filterUnits="userSpaceOnUse" color-interpolation-filters="sRGB">
<feFlood flood-opacity="0" result="BackgroundImageFix"/>
<feColorMatrix in="SourceAlpha" type="matrix" values="0 0 0 0 0 0 0 0 0 0 0 0 0 0 0 0 0 0 127 0"/>
<feOffset/>
<feGaussianBlur stdDeviation="1.5"/>
<feColorMatrix type="matrix" values="0 0 0 0 1 0 0 0 0 0 0 0 0 0 0.235294 0 0 0 1 0"/>
<feBlend mode="normal" in2="BackgroundImageFix" result="effect1_dropShadow"/>
<feBlend mode="normal" in="SourceGraphic" in2="effect1_dropShadow" result="shape"/>
</filter>
</defs>
</svg>
