<svg width="1280" height="66" viewBox="0 0 1280 66" fill="none" xmlns="http://www.w3.org/2000/svg">
<path d="M1232.98 48.4836L1280 48.4836L1280 0L-6.30486e-06 0.000100855L-1.60205e-06 48.4837L20.0078 48.4837L28.011 55.9426L52.0204 55.9426L59.5233 48.4837L161.063 48.4837L167.065 42.623L173.068 48.4837L506.698 48.4837L515.701 57.0083L529.207 57.0083L546.213 38.8935L555.717 48.4837L800.813 48.4836L815.318 63.4017L821.321 57.0082L859.836 57.0082L872.841 43.1558L907.855 43.1558L915.358 51.6804L993.888 51.6803L999.891 44.7541L1006.89 51.6803L1185.46 51.6803L1198.47 65L1223.98 38.8934L1232.98 48.4836Z" fill="#010010" stroke="#010010"/>
</svg>
