<svg width="36" height="40" viewBox="0 0 36 40" fill="none" xmlns="http://www.w3.org/2000/svg">
<g filter="url(#filter0_d)">
<path d="M3.5 11.6601L18 3.57252L32.5 11.6601V28.4711L18 36.4296L3.5 28.4711V11.6601Z" stroke="#FF003C"/>
</g>
<path d="M18 15.08C19.6015 15.08 19.7908 15.0846 20.4231 15.1169C21.0092 15.1446 21.3277 15.2415 21.5354 15.3246C21.8169 15.4354 22.0154 15.5646 22.2231 15.7723C22.4354 15.9846 22.5646 16.1831 22.6708 16.46C22.7538 16.6723 22.8508 16.9908 22.8785 17.5723C22.9062 18.2046 22.9154 18.3938 22.9154 19.9954C22.9154 21.5969 22.9108 21.7862 22.8785 22.4185C22.8508 23.0046 22.7538 23.3231 22.6708 23.5308C22.56 23.8123 22.4308 24.0108 22.2231 24.2231C22.0154 24.4308 21.8123 24.5646 21.5354 24.6708C21.3231 24.7538 21.0046 24.8508 20.4231 24.8785C19.7908 24.9062 19.6015 24.9154 18 24.9154C16.3985 24.9154 16.2092 24.9108 15.5769 24.8785C14.9908 24.8508 14.6723 24.7538 14.4646 24.6708C14.1831 24.56 13.9846 24.4308 13.7723 24.2231C13.5646 24.0108 13.4308 23.8123 13.3246 23.5308C13.2415 23.3185 13.1446 23 13.1169 22.4185C13.0892 21.7954 13.08 21.6015 13.08 20C13.08 18.3985 13.0846 18.2092 13.1169 17.5769C13.1446 16.9908 13.2415 16.6723 13.3246 16.4646C13.4308 16.1831 13.56 15.98 13.7723 15.7723C13.9846 15.56 14.1831 15.4308 14.4646 15.3246C14.6769 15.2415 14.9954 15.1446 15.5769 15.1169C16.2092 15.0892 16.3985 15.08 18 15.08ZM18 14C16.3708 14 16.1677 14.0092 15.5262 14.0369C14.8892 14.0646 14.4508 14.1662 14.0677 14.3138C13.6708 14.4662 13.3385 14.6738 13.0062 15.0062C12.6738 15.3385 12.4662 15.6754 12.3138 16.0677C12.1662 16.4508 12.0646 16.8846 12.0369 17.5262C12.0046 18.1677 12 18.3708 12 20C12 21.6292 12.0046 21.8323 12.0369 22.4738C12.0646 23.1108 12.1662 23.5492 12.3138 23.9323C12.4662 24.3246 12.6738 24.6615 13.0062 24.9938C13.3385 25.3262 13.6754 25.5338 14.0677 25.6862C14.4508 25.8338 14.8846 25.9354 15.5262 25.9631C16.1677 25.9954 16.3708 26 18 26C19.6292 26 19.8323 25.9954 20.4738 25.9631C21.1108 25.9354 21.5492 25.8338 21.9323 25.6862C22.3292 25.5338 22.6615 25.3262 22.9938 24.9938C23.3262 24.6615 23.5338 24.3246 23.6862 23.9323C23.8338 23.5492 23.9354 23.1154 23.9631 22.4738C23.9954 21.8369 24 21.6292 24 20C24 18.3708 23.9954 18.1677 23.9631 17.5262C23.9354 16.8892 23.8338 16.4508 23.6862 16.0677C23.5338 15.6754 23.3262 15.3385 22.9938 15.0062C22.6615 14.6738 22.3246 14.4662 21.9323 14.3138C21.5492 14.1662 21.1154 14.0646 20.4738 14.0369C19.8369 14.0092 19.6292 14 18 14Z" fill="#FF003C"/>
<path d="M18.0001 16.9219C16.297 16.9219 14.917 18.3019 14.917 20.005C14.917 21.708 16.297 23.088 18.0001 23.088C19.7031 23.088 21.0831 21.708 21.0831 20.005C21.0831 18.3019 19.7031 16.9219 18.0001 16.9219ZM18.0001 22.0034C16.897 22.0034 16.0016 21.108 16.0016 20.005C16.0016 18.9019 16.897 18.0065 18.0001 18.0065C19.1031 18.0065 19.9985 18.9019 19.9985 20.005C20.0031 21.108 19.1078 22.0034 18.0001 22.0034Z" fill="#FF003C"/>
<path d="M21.9232 16.7971C21.9232 17.1941 21.6001 17.5171 21.2032 17.5171C20.8062 17.5171 20.4832 17.1941 20.4832 16.7971C20.4832 16.4002 20.8062 16.0771 21.2032 16.0771C21.6001 16.0771 21.9232 16.4002 21.9232 16.7971Z" fill="#FF003C"/>
<defs>
<filter id="filter0_d" x="0" y="0" width="36" height="40" filterUnits="userSpaceOnUse" color-interpolation-filters="sRGB">
<feFlood flood-opacity="0" result="BackgroundImageFix"/>
<feColorMatrix in="SourceAlpha" type="matrix" values="0 0 0 0 0 0 0 0 0 0 0 0 0 0 0 0 0 0 127 0"/>
<feOffset/>
<feGaussianBlur stdDeviation="1.5"/>
<feColorMatrix type="matrix" values="0 0 0 0 1 0 0 0 0 0 0 0 0 0 0.235294 0 0 0 1 0"/>
<feBlend mode="normal" in2="BackgroundImageFix" result="effect1_dropShadow"/>
<feBlend mode="normal" in="SourceGraphic" in2="effect1_dropShadow" result="shape"/>
</filter>
</defs>
</svg>
